<svg id="visual" viewBox="0 0 960 540" width="960" height="540" xmlns="http://www.w3.org/2000/svg" xmlns:xlink="http://www.w3.org/1999/xlink" version="1.1"><rect x="0" y="0" width="960" height="540" fill="#FFFFFF"></rect><defs><linearGradient id="grad1_0" x1="43.8%" y1="100%" x2="100%" y2="0%"><stop offset="14.444444444444446%" stop-color="#ffffff" stop-opacity="1"></stop><stop offset="85.55555555555554%" stop-color="#ffffff" stop-opacity="1"></stop></linearGradient></defs><defs><linearGradient id="grad2_0" x1="0%" y1="100%" x2="56.3%" y2="0%"><stop offset="14.444444444444446%" stop-color="#ffffff" stop-opacity="1"></stop><stop offset="85.55555555555554%" stop-color="#ffffff" stop-opacity="1"></stop></linearGradient></defs><g transform="translate(960, 540)"><path d="M-270 0C-252.4 -16.9 -234.7 -33.9 -230.1 -52.5C-225.4 -71.1 -233.8 -91.4 -234.3 -112.8C-234.7 -134.2 -227.4 -156.7 -211.1 -168.3C-194.8 -180 -169.5 -181 -152.8 -191.5C-136 -202.1 -127.8 -222.4 -113.7 -236.1C-99.6 -249.7 -79.6 -256.7 -59.6 -261.3C-39.7 -265.8 -19.9 -267.9 0 -270L0 0Z" fill="#a5059d"></path></g><g transform="translate(0, 0)"><path d="M270 0C252.3 16.5 234.7 32.9 233 53.2C231.3 73.5 245.6 97.6 243.3 117.1C240.9 136.7 222 151.8 203.3 162.1C184.6 172.4 166.1 177.9 152.1 190.8C138.1 203.6 128.6 223.7 113.7 236.1C98.8 248.4 78.6 253 58.7 257.4C38.9 261.7 19.5 265.9 0 270L0 0Z" fill="#a5059d"></path></g></svg>